<svg width="146" height="146" viewBox="0 0 146 146" fill="none" xmlns="http://www.w3.org/2000/svg">
<circle cx="73" cy="73" r="73" fill="#C23785" fill-opacity="0.6"/>
<g clip-path="url(#clip0_3_619)">
<path d="M73 58C77.0755 58 77.584 58.015 79.183 58.09C80.7805 58.165 81.868 58.4155 82.825 58.7875C83.815 59.1685 84.649 59.6845 85.483 60.517C86.2457 61.2668 86.8359 62.1739 87.2125 63.175C87.583 64.1305 87.835 65.2195 87.91 66.817C87.9805 68.416 88 68.9245 88 73C88 77.0755 87.985 77.584 87.91 79.183C87.835 80.7805 87.583 81.868 87.2125 82.825C86.837 83.8267 86.2467 84.7339 85.483 85.483C84.7329 86.2455 83.826 86.8356 82.825 87.2125C81.8695 87.583 80.7805 87.835 79.183 87.91C77.584 87.9805 77.0755 88 73 88C68.9245 88 68.416 87.985 66.817 87.91C65.2195 87.835 64.132 87.583 63.175 87.2125C62.1735 86.8367 61.2663 86.2464 60.517 85.483C59.7541 84.7333 59.1639 83.8262 58.7875 82.825C58.4155 81.8695 58.165 80.7805 58.09 79.183C58.0195 77.584 58 77.0755 58 73C58 68.9245 58.015 68.416 58.09 66.817C58.165 65.218 58.4155 64.132 58.7875 63.175C59.1629 62.1733 59.7532 61.266 60.517 60.517C61.2665 59.7538 62.1736 59.1636 63.175 58.7875C64.132 58.4155 65.218 58.165 66.817 58.09C68.416 58.0195 68.9245 58 73 58ZM73 65.5C71.0109 65.5 69.1032 66.2902 67.6967 67.6967C66.2902 69.1032 65.5 71.0109 65.5 73C65.5 74.9891 66.2902 76.8968 67.6967 78.3033C69.1032 79.7098 71.0109 80.5 73 80.5C74.9891 80.5 76.8968 79.7098 78.3033 78.3033C79.7098 76.8968 80.5 74.9891 80.5 73C80.5 71.0109 79.7098 69.1032 78.3033 67.6967C76.8968 66.2902 74.9891 65.5 73 65.5ZM82.75 65.125C82.75 64.6277 82.5525 64.1508 82.2008 63.7992C81.8492 63.4475 81.3723 63.25 80.875 63.25C80.3777 63.25 79.9008 63.4475 79.5492 63.7992C79.1975 64.1508 79 64.6277 79 65.125C79 65.6223 79.1975 66.0992 79.5492 66.4508C79.9008 66.8025 80.3777 67 80.875 67C81.3723 67 81.8492 66.8025 82.2008 66.4508C82.5525 66.0992 82.75 65.6223 82.75 65.125ZM73 68.5C74.1935 68.5 75.3381 68.9741 76.182 69.818C77.0259 70.6619 77.5 71.8065 77.5 73C77.5 74.1935 77.0259 75.3381 76.182 76.182C75.3381 77.0259 74.1935 77.5 73 77.5C71.8065 77.5 70.6619 77.0259 69.818 76.182C68.9741 75.3381 68.5 74.1935 68.5 73C68.5 71.8065 68.9741 70.6619 69.818 69.818C70.6619 68.9741 71.8065 68.5 73 68.5Z" fill="white"/>
</g>
<path d="M36.62 115H38.528V109.78H42.848V108.034H38.528V104.362H43.982V102.598H36.62V115ZM48.9366 113.38C47.5506 113.38 46.3986 112.354 46.3986 110.77C46.3986 109.24 47.5506 108.232 48.9366 108.232C50.3406 108.232 51.4926 109.24 51.4926 110.77C51.4926 112.354 50.3406 113.38 48.9366 113.38ZM48.9366 115.18C51.3306 115.18 53.3466 113.434 53.3466 110.77C53.3466 108.106 51.3306 106.414 48.9366 106.414C46.5606 106.414 44.5626 108.106 44.5626 110.77C44.5626 113.434 46.5606 115.18 48.9366 115.18ZM55.4034 115H57.2574V102.022H55.4034V115ZM59.8507 115H61.7047V102.022H59.8507V115ZM68.132 113.38C66.746 113.38 65.594 112.354 65.594 110.77C65.594 109.24 66.746 108.232 68.132 108.232C69.536 108.232 70.688 109.24 70.688 110.77C70.688 112.354 69.536 113.38 68.132 113.38ZM68.132 115.18C70.526 115.18 72.542 113.434 72.542 110.77C72.542 108.106 70.526 106.414 68.132 106.414C65.756 106.414 63.758 108.106 63.758 110.77C63.758 113.434 65.756 115.18 68.132 115.18ZM87.0547 106.594H85.0747L83.1127 112.264L81.1687 106.594H79.4407L77.4967 112.264L75.5527 106.594H73.5727L76.7407 115H78.2527L80.3047 109.042L82.4467 115H83.9767L87.0547 106.594ZM98.4797 111.112C98.4797 112.786 97.3997 113.38 96.3197 113.38C95.3117 113.38 94.5737 112.66 94.5737 111.274V106.594H92.7197V111.49C92.7017 113.884 93.9077 115.18 95.9777 115.18C96.8597 115.18 97.9937 114.73 98.4797 113.776V115H100.334V106.594H98.4797V111.112ZM106.013 111.634C106.643 111.778 107.183 112.066 107.183 112.624C107.183 113.254 106.535 113.632 105.689 113.632C104.699 113.632 104.123 113.146 104.033 112.426H102.323C102.377 114.208 103.961 115.18 105.545 115.18C107.471 115.18 108.893 114.262 108.893 112.642C108.893 111.814 108.497 110.626 106.697 110.194L105.401 109.87C104.951 109.744 104.501 109.564 104.375 109.222C104.285 108.952 104.303 108.7 104.447 108.466C104.645 108.178 105.149 107.998 105.635 107.998C106.211 107.998 106.787 108.268 106.859 108.898H108.623C108.533 107.098 107.039 106.414 105.563 106.414C104.033 106.414 102.647 107.386 102.557 108.628C102.431 109.996 103.079 110.878 104.879 111.364L106.013 111.634Z" fill="white"/>
<defs>
<clipPath id="clip0_3_619">
<rect width="36" height="36" fill="white" transform="translate(55 55)"/>
</clipPath>
</defs>
</svg>
