<svg width="98" height="18" viewBox="0 0 98 18" fill="none" xmlns="http://www.w3.org/2000/svg">
<g clip-path="url(#clip0_3_36)">
<path d="M4.05535 10.6667C3.95898 10.0934 3.98876 9.50593 4.1426 8.94526C4.29645 8.38459 4.57067 7.8642 4.94616 7.42032C5.32165 6.97645 5.78939 6.61977 6.31681 6.37511C6.84422 6.13046 7.41863 6.00372 8.00002 6.00372C8.58141 6.00372 9.15582 6.13046 9.68323 6.37511C10.2106 6.61977 10.6784 6.97645 11.0539 7.42032C11.4294 7.8642 11.7036 8.38459 11.8574 8.94526C12.0113 9.50593 12.0411 10.0934 11.9447 10.6667H4.05535ZM1.33335 12.0001H8.00002V13.3334H1.33335V12.0001ZM9.33335 12.0001H14.6667V13.3334H9.33335V12.0001ZM10.6667 14.6667H13.3334V16.0001H10.6667V14.6667ZM2.66669 14.6667H9.33335V16.0001H2.66669V14.6667ZM7.33335 2.66675H8.66669V4.66675H7.33335V2.66675ZM2.34335 5.28608L3.28602 4.34341L4.70002 5.75741L3.75735 6.70008L2.34335 5.28675V5.28608ZM12.7134 4.34341L13.656 5.28608L12.242 6.70008L11.2994 5.75741L12.7134 4.34341ZM15.3334 9.33341V10.6667H13.3334V9.33341H15.3334ZM2.66669 9.33341V10.6667H0.666687V9.33341H2.66669Z" fill="#393939"/>
</g>
<path d="M54.08 13V4.732H52.964V10.912L49.232 4.732H48.128V13H49.244V6.772L53.012 13H54.08ZM56.7179 9.76C56.8499 8.812 57.5699 8.26 58.4939 8.26C59.4059 8.26 60.0659 8.812 60.1979 9.76H56.7179ZM61.2779 10.18C61.2779 8.404 60.0899 7.276 58.4939 7.276C56.8979 7.276 55.6259 8.404 55.6259 10.18C55.6259 11.956 56.8979 13.12 58.4939 13.12C59.5859 13.12 60.5939 12.628 61.0739 11.632C60.7739 11.5 60.4259 11.404 60.1379 11.272C59.8139 11.836 59.2019 12.136 58.5299 12.136C57.5699 12.136 56.8499 11.56 56.7179 10.612H61.2659C61.2779 10.48 61.2779 10.312 61.2779 10.18ZM68.8239 13L70.8999 7.396H69.7359L68.3319 11.32L66.9279 7.396H65.8719L64.4679 11.32L63.0639 7.396H61.8999L64.0359 13H64.9239L66.3999 8.884L67.9239 13H68.8239ZM78.3206 13V9.196L81.4886 4.732H80.1446L77.7446 8.08L75.3686 4.732H74.0366L77.1686 9.196V13H78.3206ZM83.6907 13.12C85.2867 13.12 86.6307 11.956 86.6307 10.18C86.6307 8.404 85.2867 7.276 83.6907 7.276C82.0947 7.276 80.7627 8.404 80.7627 10.18C80.7627 11.956 82.0947 13.12 83.6907 13.12ZM83.6907 12.064C82.6707 12.064 81.8427 11.332 81.8427 10.18C81.8427 9.052 82.6707 8.344 83.6907 8.344C84.6867 8.344 85.5387 9.052 85.5387 10.18C85.5387 11.332 84.6867 12.064 83.6907 12.064ZM89.1759 10.96C89.1759 9.472 89.6319 8.32 90.7119 8.32C90.9399 8.32 91.2399 8.368 91.5399 8.512L91.7079 7.492C91.5519 7.384 91.1319 7.276 90.7359 7.276C90.0039 7.276 89.4639 7.66 89.1759 8.656V7.396H88.0839V13H89.1759V10.96ZM93.8983 10.264L96.4543 13H97.8943L94.9183 9.82L97.3183 7.396H95.8303L93.8983 9.352V4.348H92.8183V13H93.8983V10.264Z" fill="#393939"/>
<path d="M24.776 13H25.856V5.092L23.504 5.944V6.976L24.776 6.532V13ZM27.5838 11.332C28.0638 12.424 29.0958 13.12 30.1878 13.12C31.9398 13.12 33.1278 12.088 33.1278 10.48C33.1278 8.848 31.8918 7.972 30.4518 7.972C29.9838 7.972 29.3358 8.164 28.9758 8.428L29.4078 6.208H32.6958V5.176H28.5198L27.8358 9.076L28.5078 9.628C29.3118 9.148 29.7798 8.98 30.4518 8.98C31.3158 8.98 32.0718 9.472 32.0718 10.48C32.0718 11.356 31.5078 12.076 30.1878 12.076C29.4318 12.076 28.8078 11.596 28.5078 10.828L27.5838 11.332Z" fill="#393939"/>
<g clip-path="url(#clip1_3_36)">
<path d="M32.5 3.33333C32.3468 3.33333 32.1951 3.30316 32.0535 3.24453C31.912 3.1859 31.7834 3.09996 31.675 2.99162C31.5667 2.88329 31.4808 2.75468 31.4221 2.61313C31.3635 2.47158 31.3333 2.31988 31.3333 2.16667C31.3333 2.01346 31.3635 1.86175 31.4221 1.7202C31.4808 1.57866 31.5667 1.45004 31.675 1.34171C31.7834 1.23337 31.912 1.14744 32.0535 1.08881C32.1951 1.03018 32.3468 1 32.5 1C32.8094 1 33.1061 1.12292 33.3249 1.34171C33.5437 1.5605 33.6666 1.85725 33.6666 2.16667C33.6666 2.47609 33.5437 2.77283 33.3249 2.99162C33.1061 3.21042 32.8094 3.33333 32.5 3.33333ZM32.5 2.66667C32.6326 2.66667 32.7598 2.61399 32.8535 2.52022C32.9473 2.42645 33 2.29927 33 2.16667C33 2.03406 32.9473 1.90688 32.8535 1.81311C32.7598 1.71935 32.6326 1.66667 32.5 1.66667C32.3674 1.66667 32.2402 1.71935 32.1464 1.81311C32.0527 1.90688 32 2.03406 32 2.16667C32 2.29927 32.0527 2.42645 32.1464 2.52022C32.2402 2.61399 32.3674 2.66667 32.5 2.66667ZM38.3333 3.33333H37.6666C37.6666 2.97971 37.5262 2.64057 37.2761 2.39052C37.0261 2.14048 36.6869 2 36.3333 2C35.9797 2 35.6406 2.14048 35.3905 2.39052C35.1405 2.64057 35 2.97971 35 3.33333V5C35 5.35362 35.1405 5.69276 35.3905 5.94281C35.6406 6.19286 35.9797 6.33333 36.3333 6.33333C36.6869 6.33333 37.0261 6.19286 37.2761 5.94281C37.5262 5.69276 37.6666 5.35362 37.6666 5H38.3333C38.3333 5.53043 38.1226 6.03914 37.7475 6.41421C37.3725 6.78929 36.8637 7 36.3333 7C35.8029 7 35.2942 6.78929 34.9191 6.41421C34.544 6.03914 34.3333 5.53043 34.3333 5V3.33333C34.3333 2.8029 34.544 2.29419 34.9191 1.91912C35.2942 1.54405 35.8029 1.33333 36.3333 1.33333C36.8637 1.33333 37.3725 1.54405 37.7475 1.91912C38.1226 2.29419 38.3333 2.8029 38.3333 3.33333Z" fill="#393939"/>
</g>
<defs>
<clipPath id="clip0_3_36">
<rect width="16" height="16" fill="white" transform="translate(0 2)"/>
</clipPath>
<clipPath id="clip1_3_36">
<rect width="8" height="8" fill="white" transform="translate(31)"/>
</clipPath>
</defs>
</svg>
